<svg width="106" height="20" viewBox="0 0 106 20" fill="none" xmlns="http://www.w3.org/2000/svg">
<path d="M0 0H7.72455C9.1959 0 10.2994 0.378932 11.1168 1.01049C12.016 1.76835 12.5064 2.86304 12.5064 4.21035C12.5064 5.76818 11.8934 6.73657 10.6672 7.32601V7.41022C12.3021 7.95757 13.2421 9.4733 13.2421 11.2837C13.2421 13.01 12.5882 14.3573 11.5255 15.1994C10.6264 15.873 9.48199 16.1678 7.92891 16.1678H0V0ZM6.94801 6.31553C7.76542 6.31553 8.37848 5.85239 8.37848 4.88401C8.37848 3.95773 7.76542 3.49459 6.90714 3.49459H4.25055V6.27343H6.94801V6.31553ZM7.31585 12.589C8.25587 12.589 8.95067 11.9995 8.95067 10.9469C8.95067 9.81012 8.215 9.30488 7.31585 9.30488H4.29142V12.6311H7.31585V12.589Z" fill="#A7AFD6"/>
<path d="M13.9368 0H17.983V16.2096H13.9368V0Z" fill="#A7AFD6"/>
<path d="M18.8005 10.4412C18.8005 6.77833 21.0893 4.33643 24.645 4.33643C28.2008 4.33643 30.4487 6.82043 30.4487 10.4412C30.4487 14.1041 28.2008 16.546 24.645 16.546C21.0893 16.546 18.8005 14.1041 18.8005 10.4412ZM26.4025 10.4412C26.4025 8.4203 25.7894 7.15725 24.5633 7.15725C23.3372 7.15725 22.765 8.4203 22.765 10.4412C22.765 12.4621 23.3372 13.7672 24.5633 13.7672C25.7894 13.7251 26.4025 12.4621 26.4025 10.4412Z" fill="#A7AFD6"/>
<path d="M30.8984 10.4412C30.8984 6.77833 33.1872 4.33643 36.7429 4.33643C40.2987 4.33643 42.5057 6.77833 42.5057 10.4412C42.5057 14.1041 40.2578 16.546 36.7021 16.546C33.1872 16.546 30.8984 14.1041 30.8984 10.4412ZM38.5004 10.4412C38.5004 8.4203 37.8873 7.15725 36.6612 7.15725C35.4351 7.15725 34.8629 8.4203 34.8629 10.4412C34.8629 12.4621 35.4351 13.7672 36.6612 13.7672C37.8873 13.7251 38.5004 12.4621 38.5004 10.4412Z" fill="#A7AFD6"/>
<path d="M43.323 4.63173H47.0831V6.3579H47.1648C47.9005 5.01065 48.9223 4.29492 50.5571 4.29492C51.9876 4.29492 53.0502 5.01065 53.5815 6.27369H53.6633C54.5624 4.75804 55.7477 4.29492 57.1373 4.29492C59.753 4.29492 60.8565 6.27369 60.8565 8.92609V16.1676H56.9329V9.64182C56.9329 8.46298 56.5651 7.70515 55.5842 7.70515C54.6033 7.70515 54.1128 8.63138 54.1128 9.89443V16.1676H50.1893V9.64182C50.1893 8.46298 49.8214 7.70515 48.8405 7.70515C47.8596 7.70515 47.3692 8.63138 47.3692 9.89443V16.1676H43.323V4.63173Z" fill="#A7AFD6"/>
<path d="M65.8019 14.6519H65.7611V16.1676H62.001V0H65.9245V5.81022H66.0063C66.742 4.79975 67.7637 4.25241 69.1942 4.25241C72.0143 4.25241 73.6491 6.8628 73.6491 10.3574C73.6491 14.2729 71.8917 16.5465 68.949 16.5465C67.7229 16.5465 66.4559 15.9571 65.8019 14.6519ZM69.6029 10.3153C69.6029 8.46272 68.949 7.24173 67.7637 7.24173C66.5376 7.24173 65.8019 8.46272 65.8019 10.3153C65.8019 12.1678 66.5785 13.3888 67.7637 13.3888C68.949 13.3888 69.6029 12.2099 69.6029 10.3153Z" fill="#A7AFD6"/>
<path d="M74.0986 10.3998C74.0986 6.77896 76.4283 4.29492 79.7797 4.29492C81.4554 4.29492 82.7223 4.84225 83.7032 5.81061C85.0111 7.11578 85.5833 9.1367 85.5424 11.4944H78.0222C78.1857 12.9259 78.8396 13.6838 80.0249 13.6838C80.7197 13.6838 81.3327 13.3469 81.578 12.5891H85.3789C84.725 15.2415 82.7224 16.5467 79.9023 16.5467C76.4283 16.5046 74.0986 14.0627 74.0986 10.3998ZM78.0222 9.1788H81.6188C81.5371 7.78942 80.8014 7.07368 79.8614 7.07368C78.7579 7.03158 78.1448 7.83152 78.0222 9.1788Z" fill="#A7AFD6"/>
<path d="M89.9974 6.60943H90.0791C90.8965 5.00949 91.9592 4.37793 93.3079 4.37793C93.6349 4.37793 93.8392 4.42003 93.9618 4.50424V8.04097H93.8801C91.5505 7.61993 90.2018 8.75673 90.2018 11.3672V16.2091H86.2373V4.63055H89.9974V6.60943Z" fill="#A7AFD6"/>
<path d="M94.3704 16.2097H98.1713C98.3348 16.7149 98.8253 17.1781 99.7653 17.1781C101.032 17.1781 101.482 16.3781 101.482 15.1571V14.3151H101.4C100.787 15.0729 99.9288 15.6203 98.7027 15.6203C96.2913 15.6203 94.166 13.7677 94.166 10.1469C94.166 6.82073 95.8826 4.25244 98.4983 4.25244C100.011 4.25244 100.91 4.88399 101.523 5.85236H101.604V4.58927H105.365V14.6098C105.365 16.4623 104.752 17.8938 103.811 18.7359C102.831 19.62 101.441 19.999 99.847 19.999C96.8226 20.0411 94.7382 18.778 94.3704 16.2097ZM101.645 9.97845C101.645 8.54695 100.991 7.36807 99.847 7.36807C98.7435 7.36807 98.0487 8.37854 98.0487 9.97845C98.0487 11.5363 98.7435 12.6309 99.847 12.6309C100.951 12.6309 101.645 11.4942 101.645 9.97845Z" fill="#A7AFD6"/>
</svg>
