<svg width="264" height="300" viewBox="0 0 264 300" fill="none" xmlns="http://www.w3.org/2000/svg">
<rect width="264" height="300" fill="black" fill-opacity="0"/>
<path d="M93.4395 229.377C109.426 240.445 128.743 247.059 149.6 247.059C173.162 247.059 194.758 238.618 211.544 224.588L224.032 237.11C204.025 254.313 178.023 264.706 149.6 264.706C130.263 264.706 112.046 259.895 96.075 251.402L83.0437 264.322C102.584 275.784 125.327 282.353 149.6 282.353C182.884 282.353 213.29 270.001 236.509 249.62L248.979 262.123C222.554 285.686 187.744 300 149.6 300C114.149 300 81.5784 287.636 55.9428 266.974L93.4395 229.377ZM49.001 248.978L42.8785 255.117C16.3582 228.05 0 190.941 0 150C0 67.1573 66.9782 0 149.6 0C190.431 0 227.442 16.4019 254.436 42.9931L241.991 55.472C218.182 32.074 185.571 17.6471 149.6 17.6471C76.6984 17.6471 17.6 76.9035 17.6 150C17.6 179.722 27.3713 207.157 43.8686 229.249L56.5216 216.704C43.0998 197.909 35.2 174.88 35.2 150C35.2 86.6497 86.4186 35.2941 149.6 35.2941C180.711 35.2941 208.922 47.7463 229.545 67.9511L196.841 100.743L192.205 105.391L190.476 103.792C179.6 94.1131 165.285 88.2353 149.6 88.2353C115.579 88.2353 88 115.888 88 150C88 184.112 115.579 211.765 149.6 211.765C163.437 211.765 176.208 207.191 186.491 199.468L199.036 212.046C185.487 222.913 168.3 229.412 149.6 229.412C105.859 229.412 70.4 193.858 70.4 150C70.4 106.142 105.859 70.5882 149.6 70.5882C164.626 70.5882 178.674 74.7836 190.643 82.0699L203.473 69.3496C188.073 58.9868 169.541 52.9412 149.6 52.9412C96.1388 52.9412 52.8 96.3959 52.8 150C52.8 176.321 63.2495 200.196 80.216 217.679L49.001 248.978ZM246.4 150C246.4 129.087 239.803 109.718 228.583 93.8728L241.178 81.2433C255.51 100.403 264 124.207 264 150C264 178.499 253.634 204.571 236.477 224.631L223.989 212.109C237.982 195.278 246.4 173.625 246.4 150Z" fill="black"/>
</svg>
