<svg width="100" height="20" viewBox="0 0 100 20" fill="none" xmlns="http://www.w3.org/2000/svg">
<path d="M17.0432 0C17.1596 0.0431406 17.276 0.0862815 17.3924 0.112166C18.3485 0.388266 19.1051 1.28559 19.1882 2.26057C19.2963 3.44262 18.7808 4.44349 17.8247 4.93529C16.9102 5.40121 15.7463 5.27179 15.0479 4.49525C13.9921 3.3132 12.3543 3.34771 11.3067 4.48663C10.3756 5.50475 8.84586 5.42709 7.83157 4.40897C7.16647 3.73598 6.40161 3.44262 5.48709 3.67558C3.99893 4.05522 2.70198 6.12597 4.08206 7.91199C4.48112 8.42968 4.89681 8.93011 4.97164 9.62899C5.06309 10.5091 4.79705 11.2511 4.20677 11.9068C2.89319 13.365 3.54167 15.7118 5.39564 16.2554C6.35172 16.5401 7.16647 16.2209 7.87314 15.5393C8.39691 15.0388 9.00382 14.7886 9.72712 14.8145C10.9659 14.8663 11.9053 15.7636 12.1049 17.0923C12.2794 18.2312 11.5478 19.4305 10.4421 19.8274C10.2841 19.8792 10.1345 19.9482 9.98484 20C9.76037 20 9.54421 20 9.31974 20C8.63801 19.8188 8.0893 19.4219 7.55722 18.9387C6.71753 18.1622 5.43721 18.1622 4.5892 18.9301C4.05712 19.4133 3.51673 19.8188 2.835 20C2.61052 20 2.39437 20 2.16989 20C2.07013 19.9655 1.97036 19.9223 1.8706 19.8878C1.06416 19.629 0.490513 19.1027 0.191217 18.2657C0.133021 18.0932 0.0748238 17.9206 0.00831365 17.7567C0.00831365 17.5237 0.00831365 17.2994 0.00831365 17.0664C0.174589 16.333 0.581964 15.7636 1.04754 15.2028C1.77083 14.34 1.76252 13.0198 1.03922 12.157C0.57365 11.6048 0.182903 11.044 0.00831365 10.3365C0.00831365 10.1035 0.00831365 9.87921 0.00831365 9.64625C0.191217 8.93874 0.57365 8.36928 1.03922 7.82571C1.77915 6.95427 1.77083 5.63417 1.02259 4.74547C0.548709 4.21053 0.166275 3.6497 0 2.93356C0 2.7006 0 2.47627 0 2.24331C0.0332551 2.13978 0.0748242 2.03624 0.108079 1.9327C0.357493 1.09577 0.856319 0.491804 1.66275 0.181191C1.82903 0.120794 1.99531 0.0603969 2.15327 0C2.37774 0 2.5939 0 2.81837 0C3.48347 0.181191 4.02387 0.560828 4.54763 1.02675C5.38733 1.77739 6.60114 1.77739 7.49071 1.06126C8.04773 0.612597 8.59644 0.172563 9.30311 0C9.52759 0 9.74374 0 9.96821 0C10.6333 0.198447 11.1654 0.595341 11.6892 1.05263C12.5205 1.77739 13.726 1.77739 14.6073 1.06126C15.156 0.621226 15.6881 0.181191 16.3698 0C16.6026 0 16.8188 0 17.0432 0Z" fill="#A7AFD6"/>
<path d="M15.8794 17.4553C15.8794 16.9377 16.2535 16.5667 16.7441 16.5753C17.2013 16.584 17.5838 16.9808 17.5921 17.4467C17.6004 17.9299 17.2013 18.3526 16.7274 18.3526C16.2452 18.3612 15.8794 17.973 15.8794 17.4553Z" fill="#A7AFD6"/>
<path d="M15.8794 10.1982C15.8877 9.68055 16.2452 9.31818 16.7523 9.32681C17.2179 9.33544 17.592 9.73231 17.592 10.2068C17.592 10.69 17.1846 11.1127 16.7191 11.1127C16.2452 11.1041 15.8794 10.6986 15.8794 10.1982Z" fill="#A7AFD6"/>
<path d="M10.4666 10.2763C10.4666 10.7852 10.0925 11.1733 9.61027 11.1647C9.13637 11.1561 8.73729 10.7334 8.75392 10.2504C8.77055 9.77599 9.14468 9.39646 9.61027 9.38784C10.1091 9.37921 10.4749 9.75874 10.4666 10.2763Z" fill="#A7AFD6"/>
<path d="M28.4247 14.9964C28.882 14.9964 29.3143 14.9015 29.7217 14.7203C30.129 14.5304 30.5614 14.2802 31.0186 13.9523L32.3073 15.3156C31.6338 15.8938 30.9937 16.2907 30.3868 16.5064C29.7799 16.7221 29.1231 16.8256 28.4247 16.8256C27.6349 16.8256 26.9033 16.679 26.2298 16.3942C25.5564 16.1008 24.9745 15.7126 24.4756 15.2121C23.9851 14.7116 23.5944 14.1249 23.3117 13.4518C23.029 12.7788 22.896 12.054 22.896 11.2774C22.896 10.4577 23.0373 9.6984 23.3117 8.99085C23.5944 8.2833 23.9768 7.67067 24.4756 7.15295C24.9661 6.63523 25.5564 6.22969 26.2298 5.93631C26.9033 5.64294 27.6349 5.50488 28.4247 5.50488C29.1147 5.50488 29.7715 5.62568 30.4034 5.85866C31.0352 6.10026 31.6671 6.47992 32.3156 7.01489L31.0269 8.37822C30.6112 8.08484 30.1872 7.83461 29.7632 7.62753C29.3309 7.42907 28.8903 7.32552 28.433 7.32552C27.9342 7.32552 27.452 7.42907 26.9947 7.63615C26.5375 7.84324 26.1384 8.12799 25.7892 8.49039C25.4483 8.85279 25.174 9.27559 24.9745 9.75017C24.7749 10.2247 24.6752 10.7338 24.6752 11.2688C24.6752 11.7606 24.7749 12.2266 24.9745 12.6753C25.174 13.124 25.4483 13.5122 25.7892 13.8574C26.1301 14.2025 26.5375 14.4787 26.9947 14.6857C27.4437 14.8928 27.9259 14.9964 28.4247 14.9964Z" fill="#A7AFD6"/>
<path d="M37.9856 16.8256C37.2539 16.8256 36.5639 16.6875 35.8988 16.4028C35.242 16.1181 34.66 15.7298 34.1695 15.2208C33.679 14.7117 33.28 14.1164 32.989 13.4261C32.698 12.7359 32.5483 11.9853 32.5483 11.1829C32.5483 10.4236 32.698 9.69888 32.989 9.00864C33.28 8.31841 33.679 7.71445 34.1695 7.18815C34.66 6.67047 35.242 6.25633 35.8988 5.95435C36.5556 5.65237 37.2539 5.49707 37.9856 5.49707C38.7172 5.49707 39.4155 5.65237 40.0806 5.95435C40.7457 6.25633 41.3277 6.67047 41.8348 7.18815C42.3337 7.70582 42.7327 8.30978 43.0237 9.00864C43.3147 9.69888 43.4643 10.4236 43.4643 11.1829C43.4643 11.9853 43.3147 12.7359 43.0237 13.4261C42.7327 14.1164 42.3337 14.7117 41.8348 15.2208C41.336 15.7298 40.7457 16.1181 40.0806 16.4028C39.4155 16.6789 38.7172 16.8256 37.9856 16.8256ZM37.9856 7.38659C37.4535 7.38659 36.9713 7.49012 36.539 7.69719C36.0983 7.90427 35.7242 8.18036 35.4 8.5341C35.0757 8.88785 34.8263 9.28473 34.6517 9.74202C34.4688 10.1993 34.3857 10.6738 34.3857 11.1829C34.3857 11.7178 34.4771 12.2182 34.6517 12.6755C34.8346 13.1328 35.084 13.5297 35.4 13.8662C35.7242 14.2027 36.0983 14.4615 36.539 14.6427C36.9796 14.8325 37.4618 14.9188 37.9856 14.9188C38.5176 14.9188 38.9998 14.8239 39.4488 14.6427C39.8894 14.4529 40.2718 14.194 40.5961 13.8662C40.9203 13.5297 41.1697 13.1328 41.3443 12.6755C41.5272 12.2182 41.6104 11.7178 41.6104 11.1829C41.6104 10.6738 41.5189 10.1993 41.3443 9.74202C41.1614 9.28473 40.9203 8.88785 40.6044 8.5341C40.2885 8.18899 39.906 7.90427 39.4571 7.69719C39.0081 7.49012 38.5176 7.38659 37.9856 7.38659Z" fill="#A7AFD6"/>
<path d="M46.5572 2.14893V4.04716H44.6699V2.14893H46.5572ZM44.6699 5.55712H46.5572V16.7049H44.6699V5.55712Z" fill="#A7AFD6"/>
<path d="M50.2564 16.7306H48.3691V5.58273H50.2564L50.2813 6.92014C50.3645 6.78208 50.4892 6.62677 50.6554 6.4542C50.8217 6.273 51.0129 6.10906 51.2374 5.95375C51.4619 5.79844 51.7196 5.66039 52.0189 5.54822C52.3182 5.43605 52.6591 5.38428 53.0249 5.38428C53.7981 5.38428 54.4632 5.53959 55.0119 5.84158C55.5606 6.14358 56.0179 6.55774 56.367 7.06682C56.7162 7.57589 56.974 8.17125 57.1402 8.8529C57.3065 9.52592 57.3896 10.2334 57.3896 10.9582V16.7306H55.4775V10.9151C55.4775 10.5096 55.4442 10.0954 55.3777 9.66397C55.3112 9.23255 55.1948 8.84427 55.0119 8.49051C54.829 8.14537 54.5879 7.852 54.272 7.61904C53.956 7.38607 53.5403 7.2739 53.0249 7.2739C52.5676 7.2739 52.1686 7.36881 51.8194 7.56727C51.4785 7.75709 51.1875 8.02457 50.9464 8.34382C50.7136 8.6717 50.5307 9.05135 50.4227 9.4914C50.3063 9.93145 50.2481 10.3974 50.2481 10.8892V16.7306H50.2564Z" fill="#A7AFD6"/>
<path d="M63.6174 5.60918C64.1494 5.60918 64.6316 5.69546 65.064 5.86802C65.5046 6.04059 65.8787 6.23041 66.1947 6.43749C66.5688 6.67908 66.893 6.94656 67.184 7.23992V0.121582H69.0962V16.7569H67.184V15.0658C67.0842 15.2125 66.9429 15.3937 66.7517 15.6007C66.5688 15.8078 66.3277 16.0063 66.0284 16.2047C65.7374 16.3945 65.3882 16.5671 64.9891 16.7052C64.5901 16.8432 64.1328 16.9209 63.6174 16.9209C62.8442 16.9209 62.1458 16.7656 61.5223 16.4549C60.8987 16.1443 60.3666 15.7215 59.9177 15.1952C59.4771 14.6689 59.1362 14.0563 58.8951 13.366C58.6623 12.6757 58.5376 11.951 58.5376 11.1917C58.5376 10.4669 58.654 9.75938 58.8951 9.08638C59.1279 8.41337 59.4688 7.81802 59.9177 7.30032C60.3583 6.79125 60.8987 6.37709 61.5223 6.0751C62.1458 5.75586 62.8442 5.60918 63.6174 5.60918ZM63.6174 15.0572C64.058 15.0572 64.4986 14.9795 64.9143 14.8156C65.3383 14.6516 65.7124 14.41 66.0533 14.0908C66.3859 13.7715 66.6602 13.366 66.8681 12.8742C67.0759 12.3824 67.1757 11.8129 67.1757 11.1572C67.1757 10.5446 67.0759 10.0096 66.8764 9.55231C66.6769 9.09501 66.4108 8.70673 66.0783 8.40474C65.7457 8.10275 65.3716 7.86979 64.9393 7.71448C64.5069 7.55917 64.0663 7.48151 63.609 7.48151C63.0936 7.48151 62.6363 7.59368 62.2456 7.82665C61.8548 8.05961 61.5223 8.35297 61.2645 8.70673C61.0068 9.06049 60.8073 9.45739 60.6743 9.88881C60.5412 10.3202 60.4664 10.7344 60.4664 11.1399C60.4664 11.5713 60.5246 12.02 60.6493 12.4773C60.774 12.9346 60.9569 13.3574 61.2147 13.737C61.4724 14.1167 61.7966 14.4359 62.1957 14.6861C62.6031 14.9364 63.077 15.0572 63.6174 15.0572Z" fill="#A7AFD6"/>
<path d="M80.0281 14.574C79.4545 15.2901 78.806 15.8423 78.0744 16.2479C77.3428 16.6534 76.528 16.8519 75.6218 16.8519C74.7738 16.8519 74.0339 16.7138 73.402 16.4291C72.7618 16.1443 72.2298 15.7561 71.7974 15.2556C71.3651 14.7552 71.0492 14.1685 70.833 13.4868C70.6169 12.8052 70.5088 12.0632 70.5088 11.2607C70.5088 10.5014 70.6169 9.7853 70.833 9.09504C71.0492 8.4134 71.3734 7.80942 71.7974 7.29173C72.2298 6.77403 72.7618 6.35987 73.402 6.05788C74.0422 5.7559 74.7821 5.60059 75.6218 5.60059C76.395 5.60059 77.0933 5.7559 77.7252 6.06651C78.3571 6.37713 78.8891 6.80854 79.3298 7.36075C79.7704 7.91296 80.103 8.56871 80.3524 9.31937C80.5935 10.0787 80.7182 10.8983 80.7182 11.7698H72.3877C72.4043 12.2616 72.4792 12.7103 72.6205 13.1158C72.7618 13.5213 72.9697 13.8751 73.244 14.1771C73.5184 14.4705 73.851 14.712 74.25 14.876C74.6491 15.0485 75.1063 15.1348 75.6218 15.1348C76.1206 15.1348 76.5779 15.0399 76.977 14.8587C77.376 14.6689 77.7169 14.4618 77.9829 14.2202C78.2989 13.9528 78.5732 13.6508 78.8226 13.3056L80.0281 14.574ZM75.6052 7.3435C75.1479 7.3435 74.7322 7.42115 74.3664 7.57646C74.0006 7.73177 73.6847 7.93885 73.4103 8.18907C73.136 8.43929 72.9198 8.73265 72.7535 9.06052C72.5872 9.3884 72.4875 9.7249 72.4459 10.0614H78.6563C78.5732 9.69039 78.4319 9.33663 78.249 9.00013C78.0661 8.66362 77.8333 8.37889 77.5755 8.12867C77.3095 7.88708 77.0102 7.68863 76.686 7.55058C76.3534 7.41252 75.9959 7.3435 75.6052 7.3435Z" fill="#A7AFD6"/>
<path d="M83.3872 8.48242C83.3872 8.66361 83.4454 8.82755 83.5701 8.99148C83.6948 9.15542 83.8528 9.31073 84.0523 9.44878C84.2519 9.58683 84.493 9.7335 84.759 9.87155C85.0334 10.0096 85.3077 10.1477 85.5987 10.2857C85.9895 10.4669 86.3802 10.6653 86.7876 10.8724C87.195 11.0881 87.5608 11.3297 87.8933 11.5972C88.2259 11.8647 88.4919 12.1753 88.6998 12.5377C88.9076 12.8914 89.0074 13.3056 89.0074 13.7629C89.0074 14.6688 88.6748 15.4108 88.0014 15.9889C87.328 16.567 86.3968 16.8604 85.208 16.8604C84.6094 16.8604 84.0607 16.7913 83.5618 16.6619C83.0713 16.5239 82.639 16.3772 82.2815 16.2046C81.924 16.0321 81.6497 15.8767 81.4668 15.7387C81.2838 15.6006 81.1841 15.523 81.1841 15.5057L81.9323 14.0131C82.1069 14.0993 82.3231 14.2029 82.5808 14.3237C82.8385 14.4445 83.1129 14.548 83.4039 14.6429C83.6948 14.7378 83.9941 14.8241 84.3101 14.9018C84.6177 14.9794 84.917 15.0139 85.1997 15.0139C85.6985 15.0139 86.1059 14.9104 86.4218 14.7033C86.7377 14.4962 86.8957 14.1856 86.8957 13.7629C86.8957 13.4091 86.7044 13.1157 86.3137 12.8828C85.9229 12.6498 85.4574 12.4082 84.917 12.158L84.6343 12.0027V12.0286C84.2602 11.8474 83.8944 11.6662 83.5286 11.4678C83.1628 11.2779 82.8302 11.0364 82.5309 10.7689C82.2316 10.4928 81.9905 10.1649 81.7993 9.78527C81.6164 9.40563 81.5166 8.93971 81.5166 8.38751C81.5166 7.50744 81.8242 6.79993 82.4312 6.25636C83.0381 5.71279 83.8944 5.44531 85.0001 5.44531C85.474 5.44531 85.9063 5.49708 86.2888 5.59199C86.6795 5.6869 87.0121 5.79907 87.2947 5.91123C87.6273 6.04928 87.9266 6.19596 88.2009 6.3599L87.4028 7.92159C87.1451 7.79217 86.7959 7.64549 86.3469 7.49018C85.9063 7.33488 85.4491 7.25722 84.9918 7.25722C84.493 7.25722 84.0939 7.37802 83.8029 7.61098C83.5286 7.85257 83.3872 8.1373 83.3872 8.48242Z" fill="#A7AFD6"/>
<path d="M89.6973 0.121582H91.5845V16.7308H89.6973V0.121582ZM99.9898 16.7567H97.2379L91.3517 10.6221L96.1654 5.62635H98.8923L94.0786 10.6221L99.9898 16.7567Z" fill="#A7AFD6"/>
</svg>
