<svg width="85" height="20" viewBox="0 0 85 20" fill="none" xmlns="http://www.w3.org/2000/svg">
<path d="M84.5456 3.58964V0.289062H79.8758H76.634V3.58964V8.0789V11.3795V16.4573V19.7579H84.5456V16.4573H79.8758V11.3795H82.9133V8.0789H79.8758V3.58964H84.5456Z" fill="#A7AFD6"/>
<path d="M0 0.289062V3.58964V8.0789V11.3795V19.7579H3.24172V11.3795H6.27943V8.0789H3.24172V3.58964H7.91166V0.289062H3.24172H0Z" fill="#A7AFD6"/>
<path d="M69.1754 0.289062V10.6178L65.8544 0.289062H62.6013V19.7579H65.8544V10.364L68.8694 19.7579H69.1754H72.4171V0.289062H69.1754Z" fill="#A7AFD6"/>
<path d="M39.7054 0.289062H36.8604V3.58964H39.7054V19.7579H42.9471V3.58964H45.8035V0.289062H42.9471H39.7054Z" fill="#A7AFD6"/>
<path d="M15.5738 0C13.1255 0 11.1306 2.01965 11.1306 4.52394V15.4761C11.1306 17.9688 13.1141 20 15.5738 20C18.0221 20 20.0169 17.9804 20.0169 15.4761V4.52394C20.0169 2.01965 18.0333 0 15.5738 0ZM16.7865 15.476C16.7865 16.1568 16.2425 16.6993 15.5851 16.6993C14.9164 16.6993 14.3837 16.1453 14.3837 15.476V4.52394C14.3837 3.84304 14.9278 3.30064 15.5851 3.30064C16.2539 3.30064 16.7865 3.85466 16.7865 4.52394V15.476Z" fill="#A7AFD6"/>
<path d="M55.3695 15.384C55.3695 16.1109 54.7915 16.6996 54.0773 16.6996C53.3633 16.6996 52.7852 16.1109 52.7852 15.384V0.289062H49.5435V15.3955C49.5435 17.946 51.5723 20.0001 54.0659 20.0001C56.5709 20.0001 58.5884 17.9345 58.5884 15.3955V0.289062H55.3467V15.384H55.3695Z" fill="#A7AFD6"/>
<path d="M33.3125 8.85193V4.82438C33.3125 2.32009 31.3177 0.289062 28.858 0.289062H27.5545H24.3127V12.3833V19.7575H27.5545V12.3833V9.08271V3.57796H28.8579C29.5266 3.57796 30.082 4.13197 30.082 4.8243V7.81321C30.082 7.81321 30.0934 8.00947 30.0594 8.30946V8.32099C30.0367 8.54024 30.0027 8.79417 29.8779 9.07108V9.08262C29.6285 9.61347 29.1299 10.1674 28.1098 10.4675C28.223 11.0099 28.3705 11.6908 28.5064 12.3717H28.5291L30.4446 19.7458H33.6864L31.6461 11.8639C32.6437 11.2524 33.3125 10.133 33.3125 8.85193Z" fill="#A7AFD6"/>
</svg>
