<svg width="144" height="31" viewBox="0 0 144 31" fill="none" xmlns="http://www.w3.org/2000/svg">
<path d="M46.4131 10.4774H48.2622V14.6985H53.0781V10.4774H54.9271V20.3597H53.0781V16.3503H48.2622V20.3597H46.4131V10.4774ZM78.0888 11.0138C78.8754 11.4562 79.494 12.0632 79.9448 12.835C80.3956 13.6068 80.6209 14.4632 80.6209 15.4044C80.6209 16.3456 80.3956 17.2044 79.9448 17.9809C79.494 18.7574 78.8754 19.3715 78.0888 19.8232C77.3023 20.275 76.4306 20.5009 75.4739 20.5009C74.5172 20.5009 73.6455 20.275 72.859 19.8232C72.0724 19.3715 71.4538 18.7574 71.003 17.9809C70.5522 17.2044 70.3269 16.3456 70.3269 15.4044C70.3269 14.4632 70.5522 13.6068 71.003 12.835C71.4538 12.0632 72.0724 11.4562 72.859 11.0138C73.6455 10.5715 74.5172 10.3503 75.4739 10.3503C76.4306 10.3503 77.3023 10.5715 78.0888 11.0138ZM73.8594 12.4891C73.3535 12.7856 72.9533 13.1903 72.6589 13.7033C72.3645 14.2162 72.2173 14.7832 72.2173 15.4044C72.2173 16.0256 72.3668 16.595 72.6658 17.1127C72.9648 17.6303 73.365 18.0397 73.8663 18.3409C74.3677 18.6421 74.9128 18.7927 75.5015 18.7927C76.0811 18.7927 76.6192 18.6421 77.116 18.3409C77.6128 18.0397 78.006 17.6303 78.2958 17.1127C78.5856 16.595 78.7305 16.0256 78.7305 15.4044C78.7305 14.7832 78.5856 14.2162 78.2958 13.7033C78.006 13.1903 77.6128 12.7856 77.116 12.4891C76.6192 12.1927 76.0811 12.0444 75.5015 12.0444C74.9128 12.0444 74.3654 12.1927 73.8594 12.4891ZM90.8806 10.4774H92.6744V20.3597H90.9219L85.9543 13.555V20.3597H84.1466V10.4774H85.8991L90.8806 17.2962V10.4774ZM96.9452 10.4774H98.7943V20.3597H96.9452V10.4774ZM108.854 12.3833C108.389 12.1574 107.918 12.0444 107.439 12.0444C106.841 12.0444 106.294 12.1903 105.797 12.4821C105.301 12.7738 104.91 13.1762 104.624 13.6891C104.339 14.2021 104.197 14.7644 104.197 15.3762C104.197 15.988 104.339 16.5503 104.624 17.0633C104.91 17.5762 105.301 17.9809 105.797 18.2774C106.294 18.5738 106.841 18.7221 107.439 18.7221C107.899 18.7221 108.362 18.6185 108.826 18.4115C109.291 18.2044 109.702 17.9174 110.061 17.5503L111.151 18.7927C110.645 19.3197 110.057 19.7362 109.385 20.0421C108.714 20.348 108.033 20.5009 107.343 20.5009C106.414 20.5009 105.563 20.275 104.79 19.8232C104.017 19.3715 103.41 18.7574 102.969 17.9809C102.527 17.2044 102.306 16.3456 102.306 15.4044C102.306 14.4632 102.532 13.6068 102.982 12.835C103.433 12.0632 104.047 11.4562 104.824 11.0138C105.602 10.5715 106.464 10.3503 107.412 10.3503C108.102 10.3503 108.778 10.4915 109.44 10.7738C110.103 11.0562 110.668 11.4468 111.138 11.9456L110.061 13.3291C109.721 12.9244 109.318 12.6091 108.854 12.3833ZM114.567 10.4774H116.416V18.6515H120.583V20.3597H114.567V10.4774ZM123.929 10.4774H131.174V12.1291H125.778V14.5715H129.718V16.2233H125.778V18.708H131.174V20.3597H123.929V10.4774ZM141.558 11.1056C142.321 11.5244 142.919 12.1103 143.351 12.8633C143.784 13.6162 144 14.468 144 15.4185C144 16.3691 143.782 17.2185 143.345 17.9668C142.908 18.715 142.303 19.3009 141.53 19.7244C140.757 20.148 139.879 20.3597 138.894 20.3597H134.948V10.4774H138.963C139.929 10.4774 140.794 10.6868 141.558 11.1056ZM140.599 18.2774C141.072 17.9997 141.443 17.6138 141.709 17.1197C141.976 16.6256 142.11 16.0633 142.11 15.4327C142.11 14.8021 141.972 14.235 141.696 13.7315C141.42 13.228 141.04 12.8374 140.557 12.5597C140.074 12.2821 139.534 12.1433 138.936 12.1433H136.797V18.6938H139.005C139.594 18.6938 140.125 18.555 140.599 18.2774ZM40.7003 12.3833C40.2357 12.1574 39.7643 12.0444 39.2859 12.0444C38.6879 12.0444 38.1406 12.1903 37.6438 12.4821C37.147 12.7738 36.7561 13.1762 36.4709 13.6891C36.1857 14.2021 36.0431 14.7644 36.0431 15.3762C36.0431 15.988 36.1857 16.5503 36.4709 17.0633C36.7561 17.5762 37.147 17.9809 37.6438 18.2774C38.1406 18.5738 38.6879 18.7221 39.2859 18.7221C39.7459 18.7221 40.2081 18.6185 40.6727 18.4115C41.1373 18.2044 41.5489 17.9174 41.9077 17.5503L42.9978 18.7927C42.4919 19.3197 41.9031 19.7362 41.2316 20.0421C40.56 20.348 39.8793 20.5009 39.1893 20.5009C38.2602 20.5009 37.4092 20.275 36.6365 19.8232C35.8637 19.3715 35.2566 18.7574 34.815 17.9809C34.3734 17.2044 34.1527 16.3456 34.1527 15.4044C34.1527 14.4632 34.378 13.6068 34.8288 12.835C35.2796 12.0632 35.8936 11.4562 36.671 11.0138C37.4483 10.5715 38.3108 10.3503 39.2583 10.3503C39.9483 10.3503 40.6244 10.4915 41.2868 10.7738C41.9491 11.0562 42.5149 11.4468 42.984 11.9456L41.9077 13.3291C41.5673 12.9244 41.1649 12.6091 40.7003 12.3833ZM65.6633 16.7398C65.8941 16.8423 66.101 16.9934 66.2841 17.1932C66.6602 17.6037 66.8483 18.1911 66.8483 18.9554V20.4702H65.0731V19.1111C65.0731 18.5769 64.6229 17.5317 63.1469 17.4694C63.131 17.4695 60.9937 17.4695 60.9937 17.4695V20.3853H59.1496V10.4774H63.0991C64.3102 10.4774 65.2482 10.7746 65.9133 11.3691C66.5785 11.9636 66.911 12.8034 66.911 13.8885C66.911 15.0209 66.5785 15.9008 65.9133 16.5283C65.8339 16.6032 65.7505 16.6737 65.6633 16.7398ZM64.606 15.3323C64.9776 15.0209 65.1633 14.5585 65.1633 13.9451C65.1633 13.3412 64.9776 12.8883 64.606 12.5863C64.2345 12.2844 63.7001 12.1334 63.0028 12.1334H60.9937V15.7993H63.0028C63.7001 15.7993 64.2345 15.6436 64.606 15.3323ZM9.15751 23.4057C10.7242 24.5124 12.6174 25.1738 14.6615 25.1738C16.9707 25.1738 19.0872 24.3298 20.7323 22.9267L21.9562 24.1789C19.9954 25.8992 17.4471 26.9385 14.6615 26.9385C12.7663 26.9385 10.981 26.4575 9.41579 25.6082L8.13867 26.9002C10.0537 28.0463 12.2826 28.7033 14.6615 28.7033C17.9235 28.7033 20.9034 27.4681 23.179 25.4299L24.4011 26.6802C21.8114 29.0365 18.3998 30.468 14.6615 30.468C11.1871 30.468 7.99506 29.2316 5.48265 27.1654L9.15751 23.4057ZM4.80232 25.3657L4.20229 25.9796C1.60317 23.273 0 19.562 0 15.468C0 7.18369 6.56417 0.467957 14.6615 0.467957C18.6632 0.467957 22.2904 2.10815 24.936 4.76727L23.7162 6.01516C21.3829 3.67536 18.1869 2.23266 14.6615 2.23266C7.5168 2.23266 1.72488 8.15831 1.72488 15.468C1.72488 18.4402 2.68251 21.1836 4.29933 23.3929L5.53937 22.1384C4.22398 20.2589 3.44976 17.9559 3.44976 15.468C3.44976 9.13293 8.46943 3.99737 14.6615 3.99737C17.7105 3.99737 20.4753 5.24258 22.4965 7.26307L19.2913 10.5422L18.837 11.007L18.6675 10.8471C17.6017 9.87927 16.1987 9.29149 14.6615 9.29149C11.3273 9.29149 8.62441 12.0568 8.62441 15.468C8.62441 18.8791 11.3273 21.6444 14.6615 21.6444C16.0175 21.6444 17.2692 21.187 18.277 20.4148L19.5064 21.6726C18.1785 22.7593 16.4942 23.4091 14.6615 23.4091C10.3747 23.4091 6.89953 19.8537 6.89953 15.468C6.89953 11.0822 10.3747 7.52678 14.6615 7.52678C16.1341 7.52678 17.5109 7.94632 18.6839 8.67494L19.9413 7.40292C18.432 6.36663 16.6158 5.76207 14.6615 5.76207C9.42205 5.76207 5.17464 10.1075 5.17464 15.468C5.17464 18.1001 6.19875 20.4875 7.86154 22.2359L4.80232 25.3657ZM24.1483 15.468C24.1483 13.3766 23.5018 11.4398 22.4022 9.85523L23.6366 8.59229C25.0411 10.5082 25.8732 12.8887 25.8732 15.468C25.8732 18.3179 24.8574 20.925 23.1759 22.9311L21.9519 21.6789C23.3233 19.9958 24.1483 17.8305 24.1483 15.468Z" fill="black"/>
</svg>
