<svg width="76" height="19" viewBox="0 0 76 19" fill="none" xmlns="http://www.w3.org/2000/svg">
<path d="M46.2979 5.40287C45.0751 5.40287 44.1147 5.66458 43.1537 6.187C43.1537 3.39825 43.1537 0.871203 43.2415 0L37.3884 1.04534V1.56827L37.9998 1.65534C38.7852 1.82948 39.0485 2.26483 39.2216 3.31118C39.3976 5.40287 39.3093 16.5584 39.2216 18.3889C40.7939 18.7377 42.454 18.9994 44.1142 18.9994C48.744 18.9994 51.5391 16.123 51.5391 11.5909C51.5391 8.01799 49.2681 5.40287 46.2979 5.40287ZM44.2887 18.0401C43.9391 18.0401 43.5018 18.0401 43.2405 17.9535C43.1527 16.7335 43.0659 11.5909 43.1527 7.05921C43.6768 6.88457 44.0259 6.7975 44.4632 6.7975C46.3862 6.7975 47.4344 9.06333 47.4344 11.8516C47.4339 15.3389 46.1234 18.0401 44.2887 18.0401ZM15.3745 0.34828H0V1.13241L0.873698 1.21948C2.0087 1.39362 2.44605 2.09069 2.62008 3.74653C2.8829 6.88407 2.79513 12.5497 2.62008 15.2503C2.44555 16.9067 2.0092 17.6913 0.873698 17.7774L0 17.9525V18.6496H9.87097V17.9525L8.82273 17.7774C7.68723 17.6908 7.25038 16.9067 7.07584 15.2503C6.98807 14.1169 6.9008 12.2864 6.9008 10.0211L8.99727 10.1082C10.3078 10.1082 10.9187 11.154 11.181 12.6352H11.9674V6.44922H11.181C10.9182 7.93092 10.3078 8.97626 8.99727 8.97626L6.9013 9.06384C6.9013 6.10044 6.98857 3.31168 7.07635 1.65584H10.1333C12.4926 1.65584 13.7153 3.13704 14.5885 5.75216L15.4622 5.49044L15.3745 0.34828Z" fill="#A7AFD6"/>
<path d="M20.3538 5.22885C24.7218 5.22885 26.9055 8.19225 26.9055 12.1139C26.9055 15.8615 24.4595 19 20.0915 19C15.724 19 13.5403 16.0361 13.5403 12.1139C13.5403 8.36639 15.9858 5.22885 20.3538 5.22885ZM20.0915 6.10056C18.1696 6.10056 17.6455 8.71517 17.6455 12.1139C17.6455 15.4256 18.5191 18.1273 20.2665 18.1273C22.2742 18.1273 22.7994 15.5127 22.7994 12.1139C22.7994 8.80224 21.9267 6.10056 20.0915 6.10056ZM52.6741 12.2015C52.6741 8.6281 54.9451 5.22885 59.4003 5.22885C63.0681 5.22885 64.816 7.93104 64.816 11.5039H56.692C56.6042 14.7285 58.1765 17.0819 61.3218 17.0819C62.7196 17.0819 63.4182 16.7342 64.2924 16.1237L64.641 16.559C63.7673 17.779 61.8459 19 59.4003 19C55.4692 18.9995 52.6741 16.2107 52.6741 12.2015ZM56.692 10.5457L60.7976 10.4581C60.7976 8.71517 60.5353 6.10056 59.0508 6.10056C57.5662 6.10056 56.7787 8.54053 56.692 10.5457ZM75.2126 5.92642C74.1644 5.49006 72.7671 5.22885 71.1947 5.22885C67.9633 5.22885 65.9531 7.1459 65.9531 9.41224C65.9531 11.6786 67.4366 12.6368 69.5356 13.3344C71.7189 14.118 72.3308 14.7285 72.3308 15.7744C72.3308 16.8202 71.5443 17.7785 70.1465 17.7785C68.4874 17.7785 67.2636 16.8202 66.3032 14.2051L65.6913 14.3803L65.779 18.2149C66.8273 18.6502 68.7487 18.9995 70.4088 18.9995C73.8158 18.9995 76.0001 17.2556 76.0001 14.5544C76.0001 12.7239 75.0386 11.6786 72.7676 10.8064C70.321 9.84809 69.4484 9.2381 69.4484 8.10468C69.4484 6.97176 70.2358 6.18712 71.284 6.18712C72.8554 6.18712 73.9036 7.1459 74.6911 9.49931L75.3019 9.32517L75.2126 5.92642ZM38.2611 5.57763C36.7765 4.70693 34.1554 5.14178 32.7581 8.27982L32.8449 5.22935L26.9928 6.36227V6.88519L27.6042 6.97226C28.3911 7.05984 28.7397 7.49519 28.8275 8.62861C29.002 10.7203 28.9147 14.3813 28.8275 16.2112C28.7397 17.2561 28.3911 17.779 27.6042 17.8666L26.9928 17.9542V18.6512H35.1164V17.9542L34.0681 17.8666C33.195 17.779 32.9326 17.2561 32.8449 16.2112C32.6703 14.5549 32.6703 11.2432 32.7581 9.15153C33.1944 8.54103 35.1164 8.01861 36.8633 9.15153L38.2611 5.57763Z" fill="#A7AFD6"/>
</svg>
