<svg width="209" height="20" viewBox="0 0 209 20" fill="none" xmlns="http://www.w3.org/2000/svg">
<path d="M207.771 17.253C207.164 17.253 206.657 17.8255 206.657 18.5982C206.657 19.3705 207.164 19.943 207.771 19.943C208.379 19.943 208.886 19.3705 208.886 18.5982C208.886 17.8255 208.379 17.253 207.771 17.253ZM167.458 19.8568H172.573V19.342L172.016 19.1988C171.51 19.0556 171.281 18.7411 171.281 17.9395V10.1575H172.472C173.206 10.1575 173.586 10.3577 173.636 12.1033L173.763 15.7654C173.864 19.0556 174.7 19.9715 176.119 19.9715C177.562 19.9715 177.942 18.8554 177.942 17.2819V16.6236H177.409V17.1098C177.409 18.1689 177.283 18.9128 176.928 18.9128C176.599 18.9128 176.574 18.6267 176.498 17.3104L176.346 14.7929C176.144 11.4164 175.764 10.2433 173.56 9.78518C175.662 9.15608 176.954 7.41049 176.954 4.92109C176.954 1.68785 174.7 0.142839 172.548 0.142839H163.913V0.657963L164.394 0.772306C165.306 1.00137 165.331 1.54501 165.331 3.8627V15.2502C165.331 17.797 164.698 19.0271 163.254 19.0271C161.963 19.0271 161.254 18.3118 161.254 15.5363V2.00276C161.254 1.20158 161.482 0.972891 162.039 0.829677L162.722 0.657963V0.142839H157.43V0.657963L157.987 0.829677C158.494 1.00139 158.671 1.23044 158.671 2.03126V15.3361C158.671 18.3403 160.216 20 162.571 20C164.926 20 166.09 18.3403 166.09 15.2502V2.83246C166.09 1.28745 166.369 0.743811 167.483 0.743811C168.369 0.743811 168.75 1.08723 168.75 2.03126V17.9395C168.75 18.7411 168.522 19.0271 168.015 19.1703L167.458 19.342V19.8568ZM201.441 2.03126C201.441 1.23044 201.669 0.972891 202.175 0.858172L202.859 0.686458V0.142839H197.592V0.657963L198.149 0.829677C198.655 1.00139 198.883 1.23044 198.883 2.03126V18.0546C198.883 18.8269 198.605 19.2562 197.819 19.2562C196.908 19.2562 196.781 18.9128 196.452 17.2249L193.211 0.0858479H192.198L189.109 16.6809C188.754 18.5405 188.577 18.9701 187.893 19.1988L187.462 19.342V19.8568H191.084V19.342L190.552 19.2273C189.792 19.0556 189.59 18.5982 189.97 16.4234L191.793 5.80812L193.793 17.0528C194.097 18.6837 194.072 18.9986 192.983 19.2273L192.451 19.342V19.8568H205.872V13.3333H205.391C205.138 16.3375 204.606 19.1703 202.454 19.1703H201.441V2.03126ZM193.54 14.5349V13.7626H190.121L190.021 14.5349H193.54ZM179.41 2.37469V16.0514C179.41 18.1116 179.41 19.0845 178.499 19.2562L178.043 19.342V19.8568H181.765V19.342C180.144 19.0845 180.144 18.455 180.144 16.2231V3.23322L179.537 2.60375L185.741 19.8568H186.804V3.94855C186.804 1.60236 186.804 1.08723 187.817 0.772306L188.172 0.657963V0.142839H184.348V0.657963L184.778 0.772306C186.07 1.02987 186.07 1.60237 186.07 3.77686V13.7337L186.323 13.6479L181.613 0.142839H177.992V0.657963L178.346 0.772306C178.752 0.91552 178.98 1.43066 179.41 2.37469ZM171.281 0.829677H172.295C173.307 0.829677 174.244 1.57351 174.244 5.29337C174.244 9.09872 173.536 9.47063 172.117 9.47063H171.281V0.829677ZM154.417 9.81404C154.417 18.0827 153.809 19.2562 152.492 19.2562C151.176 19.2562 150.593 18.0827 150.593 9.87103C150.593 1.91691 151.226 0.772306 152.492 0.772306C153.809 0.772306 154.417 1.91691 154.417 9.81404ZM157.177 9.98575C157.177 4.52067 155.632 0 152.492 0C149.327 0 147.833 4.52067 147.833 9.98575C147.833 15.4793 149.378 20 152.492 20C155.708 20 157.177 15.4793 157.177 9.98575ZM146.339 2.03126C146.339 1.23044 146.516 0.972891 147.022 0.829677L147.58 0.657963V0.142839H142.338V0.657963L142.971 0.829677C143.477 0.972891 143.756 1.17308 143.756 2.00276V15.7654C143.756 17.6823 143.604 19.2273 142.338 19.2273C141.527 19.2273 140.92 18.512 140.946 17.9972C141.021 17.1098 142.338 17.1675 142.439 15.7365C142.515 14.7066 141.933 14.2774 141.401 14.1919C140.616 14.0772 139.654 14.821 139.628 16.309C139.603 18.2259 140.717 19.9715 142.616 19.9715C144.718 19.9715 146.339 18.3691 146.339 15.3072V2.03126ZM61.7616 2.03126C61.7616 1.23044 61.9895 0.972891 62.4959 0.858172L63.1797 0.686458V0.142839H57.9127V0.657963L58.4698 0.829677C58.9761 1.00139 59.204 1.23044 59.204 2.03126V18.0546C59.204 18.8269 58.9253 19.2562 58.1403 19.2562C57.2288 19.2562 57.0768 18.9128 56.7477 17.2249L53.5063 0.0858479H52.4936L49.4042 16.6809C49.0499 18.5405 48.8723 18.9701 48.1888 19.1988L47.7582 19.342V19.8568H51.3795V19.342L50.8476 19.2273C50.0881 19.0556 49.8853 18.5982 50.2653 16.4234L52.0885 5.75076L54.089 17.0528C54.3673 18.6837 54.3673 18.9986 53.2787 19.2273L52.7468 19.342V19.8568H66.1932V13.3333H65.712C65.4589 16.3375 64.927 19.1703 62.7746 19.1703H61.7616V2.03126ZM132.259 0.829677H132.817C134.387 0.829677 134.919 3.66213 135.096 6.66667H135.577V0.142839H126.385V6.66667H126.866C127.043 3.66213 127.575 0.829677 129.145 0.829677H129.702V17.9395C129.702 18.7411 129.474 19.0271 128.968 19.1703L128.309 19.342V19.8568H133.779V19.342L132.994 19.1418C132.513 18.9986 132.259 18.8269 132.259 17.9395V0.829677ZM120.687 9.95689L121.472 9.98575C122.612 10.0143 122.941 10.5009 123.169 13.6198H123.65V5.66528H123.169C122.89 8.15468 122.586 9.21306 121.498 9.24192L120.687 9.27044V0.829695H122.435C124.385 0.829695 124.815 3.60516 125.093 6.66668H125.574V0.142857H116.838V0.657981L117.395 0.829695C117.977 1.0014 118.13 1.40218 118.13 2.06015V17.9395C118.13 18.7411 117.902 19.0271 117.395 19.1703L116.838 19.3421V19.8568H125.828V13.3334H125.346C125.042 16.309 124.713 19.1703 122.435 19.1703H120.687V9.95689ZM111.141 9.95689L111.926 9.98575C113.065 10.0143 113.394 10.5009 113.622 13.6198H114.103V5.66528H113.622C113.344 8.15468 113.04 9.21306 111.951 9.24192L111.141 9.27044V0.829695H112.888C114.838 0.829695 115.268 3.66215 115.547 6.66668H116.028V0.142857H107.038V0.657981L107.849 0.829695C108.431 1.0014 108.583 1.40218 108.583 2.06015V17.9395C108.583 18.7411 108.355 19.0271 107.849 19.1703L107.292 19.3421V19.8568H116.281V13.3334H115.8C115.496 16.309 115.167 19.1703 112.888 19.1703H111.141V9.95689ZM100.733 0.829677H101.493C102.505 0.829677 103.442 1.57351 103.442 5.29337C103.442 9.04136 102.734 9.47063 101.316 9.47063H100.733V0.829677ZM96.9092 19.8568H102.025V19.342L101.467 19.1988C100.961 19.0556 100.733 18.7411 100.733 17.9395V10.1575H101.67C102.404 10.1575 102.784 10.5009 102.835 12.1033L102.961 15.7654C103.063 19.0556 103.898 19.9715 105.316 19.9715C106.76 19.9715 107.139 18.8554 107.139 17.2819V16.6236H106.608V17.1098C106.608 18.1689 106.481 18.9128 106.127 18.9128C105.798 18.9128 105.772 18.6267 105.696 17.3104L105.544 14.7929C105.342 11.3306 104.937 10.2433 102.759 9.78518C104.861 9.15608 106.152 7.41049 106.152 4.92109C106.152 1.68785 103.898 0.142839 101.746 0.142839H96.9092V0.657963L97.4663 0.829677C97.973 1.00139 98.2006 1.23044 98.2006 2.03126V17.9395C98.2006 18.7411 97.973 19.0271 97.4663 19.1703L96.9092 19.342V19.8568ZM93.0351 0.829677H93.5922C95.1619 0.829677 95.6938 3.66213 95.8713 6.66667H96.3521V0.142839H87.1601V6.66667H87.6413C87.8185 3.66213 88.3503 0.829677 89.9204 0.829677H90.4775V17.9395C90.4775 18.7411 90.2492 19.0271 89.7432 19.1703L89.0846 19.342V19.8568H94.4276V19.342L93.7693 19.1703C93.111 18.9986 93.0351 18.4265 93.0351 17.9395V0.829677ZM87.1854 14.7351C87.1854 8.86964 81.488 7.32464 81.488 3.06152C81.488 2.14599 81.7919 0.772306 83.0577 0.772306C84.881 0.772306 85.5648 3.43343 85.8688 6.66667H86.3499V0.142839H86.046C85.9192 0.772315 85.6913 1.05874 85.3624 1.05874C84.7798 1.05874 84.4759 0.0284955 83.0833 0.0284955C80.9309 0.0284955 79.462 2.06013 79.462 4.72088C79.462 9.55648 85.1597 11.5878 85.1597 16.0514C85.1597 18.0827 84.3239 19.2273 83.1845 19.2273C81.488 19.2273 80.3738 16.9673 80.0698 13.3333H79.5887V19.8568H79.8927C80.1458 18.9128 80.475 18.8269 80.7534 18.8269C81.2348 18.8269 81.7411 19.9715 83.2097 19.9715C85.4636 19.9715 87.1854 17.7685 87.1854 14.7351ZM70.5992 2.03126C70.5992 1.23044 70.8271 0.972891 71.3335 0.858172L72.0173 0.686458V0.142839H66.7503V0.657963L67.3074 0.829677C67.8137 1.00139 68.0416 1.23044 68.0416 2.03126V17.9395C68.0416 18.7411 67.8137 19.0271 67.3074 19.1703L66.7503 19.342V19.8568H75.0307V13.3333H74.5493C74.2965 16.3375 73.7646 19.1703 71.6122 19.1703H70.5992V2.03126ZM53.8355 14.5349V13.7626H50.4172L50.3157 14.5349H53.8355ZM39.1993 19.9142H40.2375L42.5923 5.83699H42.2379L44.8207 19.9142H45.7325L48.8219 3.31909C49.1511 1.5735 49.3282 0.97288 49.9361 0.800802L50.4172 0.657963V0.142839H46.8467V0.657963L47.3786 0.772306C48.1381 0.944015 48.3152 1.45914 47.9609 3.57627L45.9604 14.7066H46.2644L44.2384 2.97566C44.0356 1.85955 43.9092 0.944015 44.745 0.772306L45.3018 0.657963V0.142839H40.4147V0.657963L40.7438 0.743811C41.2505 0.886654 41.3265 1.23045 41.5289 2.3177L42.3139 6.5808L42.1619 4.00554L40.4147 14.4206H40.6426L38.5914 2.97566C38.3635 1.80256 38.2875 0.915519 39.0977 0.743811L39.478 0.657963V0.142839H34.4893V0.657963L34.9704 0.800802C35.426 0.944016 35.6795 1.20158 35.9834 2.77509L39.1993 19.9142ZM25.677 9.95689L26.462 9.98575C27.6014 10.0143 27.9306 10.5009 28.1585 13.6198H28.6396V5.66528H28.1585C27.8801 8.15468 27.5762 9.21306 26.4872 9.24192L25.677 9.27044V0.829695H27.4242C29.3739 0.829695 29.8046 3.66215 30.083 6.66668H30.5641V0.142857H21.828V0.657981L22.3851 0.829695C22.9674 1.0014 23.1194 1.40218 23.1194 2.06015V17.9395C23.1194 18.7411 22.8915 19.0271 22.3851 19.1703L21.828 19.3421V19.8568H30.8176V13.3334H30.3361C30.0325 16.309 29.7034 19.1703 27.4242 19.1703H25.677V9.95689ZM9.74905 19.8568H14.9401V19.342L14.3578 19.1988C13.9019 19.0845 13.598 18.7411 13.598 17.9395V10.129H17.4217V17.9395C17.4217 18.7411 17.1181 19.0845 16.6622 19.1988L16.0799 19.342V19.8568H21.2709V19.342L20.7138 19.1703C20.2075 19.0271 19.9792 18.7122 19.9792 17.9114V2.03126C19.9792 1.23044 20.2075 0.972891 20.7138 0.829677L21.2709 0.657963V0.142839H16.0799V0.657963L16.6622 0.829677C17.0925 0.972891 17.4217 1.17308 17.4217 2.00276V9.35627H13.598V2.00276C13.598 1.20158 13.8767 0.972891 14.3578 0.829677L14.9401 0.657963V0.142839H9.74905V0.657963L10.3062 0.829677C10.8128 1.00139 11.0404 1.23044 11.0404 2.03126V17.9395C11.0404 18.7411 10.8128 19.0271 10.3062 19.1703L9.74905 19.342V19.8568ZM5.87459 0.829677H6.43201C8.00178 0.829677 8.53366 3.66213 8.71084 6.66667H9.19196V0.142839H0V6.66667H0.481115C0.658299 3.66213 1.19018 0.829677 2.75995 0.829677H3.31704V17.9395C3.31704 18.7411 3.08942 19.0271 2.58276 19.1703L1.92446 19.342V19.8568H7.39424V19.342L6.6092 19.1418C6.12808 18.9986 5.87459 18.8269 5.87459 17.9395V0.829677Z" fill="#A7AFD6"/>
</svg>
